<svg width="100" height="100" viewBox="0 0 100 100" xmlns="http://www.w3.org/2000/svg">
  <defs>
    <linearGradient id="r" x1="0" y1="0" x2="1" y2="1"><stop offset="0" stop-color="#F7DB86"/><stop offset=".5" stop-color="#E0AF48"/><stop offset="1" stop-color="#B87E1C"/></linearGradient>
    <linearGradient id="l" x1="0" y1="0" x2="1" y2="1"><stop offset="0" stop-color="#FCE7A6"/><stop offset="1" stop-color="#E9BE5C"/></linearGradient>
    <linearGradient id="d" x1="0" y1="0" x2="1" y2="1"><stop offset="0" stop-color="#C88F24"/><stop offset="1" stop-color="#9A6A15"/></linearGradient>
  </defs>
  <rect x="2" y="2" width="96" height="96" rx="22" fill="#23282F"/>
  <path d="M50,50 L50,17 L43,43 Z" fill="url(#l)"/><path d="M50,50 L83,50 L57,43 Z" fill="url(#l)"/>
  <path d="M50,50 L50,83 L57,57 Z" fill="url(#l)"/><path d="M50,50 L17,50 L43,57 Z" fill="url(#l)"/>
  <path d="M50,50 L50,17 L57,43 Z" fill="url(#d)"/><path d="M50,50 L83,50 L57,57 Z" fill="url(#d)"/>
  <path d="M50,50 L50,83 L43,57 Z" fill="url(#d)"/><path d="M50,50 L17,50 L43,43 Z" fill="url(#d)"/>
  <path d="M50,17 L57,43 L83,50 L57,57 L50,83 L43,57 L17,50 L43,43 Z" fill="none" stroke="#8A6316" stroke-width="0.7" stroke-linejoin="round"/>
  <circle cx="50" cy="50" r="5" fill="#23282F"/><circle cx="50" cy="50" r="5" fill="none" stroke="url(#r)" stroke-width="1.1"/>
</svg>
